<?xml version="1.0" encoding="iso-8859-1"?>
<!-- Generator: Adobe Illustrator 19.0.0, SVG Export Plug-In . SVG Version: 6.00 Build 0)  -->
<svg version="1.1" id="Capa_1" xmlns="http://www.w3.org/2000/svg" xmlns:xlink="http://www.w3.org/1999/xlink" x="0px" y="0px"
	 viewBox="0 0 512.001 512.001" style="enable-background:new 0 0 512.001 512.001;" xml:space="preserve">
<g>
	<g>
		<path d="M492.263,228.067H350.581v-16.951c0-1.4-0.107-2.776-0.313-4.119c-1.99-12.985-13.236-22.963-26.77-22.963
			s-24.78,9.978-26.77,22.963c-0.206,1.343-0.313,2.719-0.313,4.119v16.951h-141.68c-10.203,0-18.622,7.782-19.634,17.722
			c-0.067,0.663-0.102,1.335-0.102,2.015v128.923c0,10.883,8.854,19.737,19.736,19.737h23.895v53.751H75.644V189.601L247.945,74.986
			l172.3,114.616v20.432c0,4.046,3.279,7.325,7.325,7.325s7.325-3.279,7.325-7.325v-10.686l22.202,14.769
			c8.399,5.587,19.255,5.588,27.654-0.001c6.974-4.639,11.138-12.411,11.138-20.787c-0.001-8.376-4.164-16.147-11.138-20.785
			L255.039,19.735c-4.309-2.867-9.878-2.867-14.187,0L113.156,104.68c-3.368,2.24-4.283,6.787-2.042,10.156
			c2.241,3.367,6.789,4.283,10.156,2.041l126.675-84.266l228.693,152.13c2.924,1.945,4.601,5.075,4.602,8.587
			c0,3.513-1.678,6.644-4.603,8.59c-3.47,2.308-7.956,2.308-11.426,0L255.039,62.109c-4.309-2.866-9.878-2.868-14.187,0
			L30.678,201.918c-3.47,2.307-7.955,2.309-11.426-0.001c-2.925-1.945-4.602-5.075-4.602-8.588s1.677-6.643,4.602-8.589
			l63.943-42.536c3.368-2.24,4.283-6.787,2.042-10.156c-2.241-3.367-6.788-4.282-10.156-2.041l-63.943,42.535
			C4.164,177.181,0,184.951,0,193.329s4.164,16.148,11.138,20.786c4.201,2.795,9.013,4.192,13.828,4.192
			c4.813-0.001,9.628-1.398,13.827-4.192l22.201-14.768v250.868H32.921c-12.187,0-22.101,9.915-22.101,22.101
			c0,12.187,9.914,22.101,22.101,22.101h430.048c12.187,0,22.101-9.915,22.101-22.101c0-12.187-9.915-22.101-22.101-22.101h-28.073
			v-36.103c0-4.046-3.279-7.325-7.325-7.325c-4.046,0-7.325,3.279-7.325,7.325v36.103h-69.664v-53.751h141.682
			c10.883,0,19.737-8.854,19.737-19.737V247.804C512,236.921,503.146,228.067,492.263,228.067z M311.067,211.116
			c0-6.855,5.577-12.432,12.432-12.432c6.855,0,12.432,5.577,12.432,12.432v16.951h-24.864V211.116z M296.417,479.767H32.921
			c-4.108,0-7.451-3.342-7.451-7.451c0-4.109,3.342-7.451,7.451-7.451h263.496V479.767z M296.417,450.215H193.28v-53.751h103.137
			V450.215z M335.931,479.767h-24.864v-83.304h24.864V479.767z M427.571,464.865L427.571,464.865l35.398,0
			c4.109,0,7.451,3.342,7.451,7.451s-3.342,7.451-7.451,7.451H350.581v-14.902H427.571z M497.35,376.727
			c0,2.805-2.281,5.087-5.087,5.087H343.256h-39.514H185.955h-31.22c-2.805,0-5.086-2.281-5.086-5.087V247.804
			c0-2.804,2.281-5.086,5.086-5.086h149.007h39.514c0.006,0,0.013-0.001,0.019-0.001h148.988c2.805,0,5.087,2.281,5.087,5.087
			V376.727z"/>
	</g>
</g>
<g>
	<g>
		<path d="M247.945,107.234c-25.445,0-46.146,20.701-46.146,46.146c0,25.445,20.701,46.147,46.146,46.147
			c25.444,0,46.146-20.701,46.146-46.147C294.091,127.936,273.39,107.234,247.945,107.234z M240.62,184.007
			c-11.502-2.751-20.568-11.826-23.309-23.333h23.309V184.007z M240.62,146.024h-23.294c2.758-11.478,11.813-20.524,23.294-23.27
			V146.024z M255.27,122.754c11.482,2.746,20.537,11.793,23.294,23.27H255.27V122.754z M255.27,184.007v-23.333h23.308
			C275.838,172.181,266.772,181.255,255.27,184.007z"/>
	</g>
</g>
<g>
	<g>
		<path d="M223.664,292.859c0-5.095,4.352-8.174,11.994-8.174c8.916,0,11.357,4.035,14.647,4.035c3.821,0,5.52-4.883,5.52-7.324
			c0-7.006-13.904-8.492-20.167-8.492c-12.206,0-25.792,5.414-25.792,21.228c0,25.155,34.071,20.274,34.071,36.195
			c0,6.368-5.52,9.234-11.887,9.234c-10.827,0-13.693-8.173-18.044-8.173c-3.291,0-6.05,4.458-6.05,7.43
			c0,6.156,10.614,13.161,24.518,13.161c14.647,0,25.261-7.855,25.261-23.032C257.736,301.456,223.664,306.02,223.664,292.859z"/>
	</g>
</g>
<g>
	<g>
		<path d="M322.795,344.231l-20.486-66.762c-0.955-3.185-4.883-4.671-8.915-4.671c-3.928,0-7.855,1.486-8.81,4.671l-20.485,66.762
			c-0.106,0.423-0.212,0.849-0.212,1.061c0,3.397,4.988,5.732,8.703,5.732c2.335,0,4.139-0.744,4.67-2.76l4.034-14.116H305.6
			l4.034,14.116c0.53,2.016,2.335,2.76,4.67,2.76c3.715,0,8.703-2.442,8.703-5.732C323.007,344.973,322.901,344.655,322.795,344.231
			z M284.159,323.321l9.235-32.585l9.234,32.585H284.159z"/>
	</g>
</g>
<g>
	<g>
		<path d="M372.145,338.924h-25.898v-61.243c0-2.972-3.502-4.245-6.899-4.245c-3.502,0-6.899,1.273-6.899,4.245v68.991
			c0,2.866,2.972,4.352,6.05,4.352h33.646c2.759,0,4.139-3.079,4.139-6.051C376.284,341.896,374.904,338.924,372.145,338.924z"/>
	</g>
</g>
<g>
	<g>
		<path d="M429.774,338.923h-30.038v-21.335h16.133c2.972,0,4.352-2.865,4.352-5.307c0-2.865-1.593-5.52-4.352-5.52h-16.133v-21.228
			h30.038v0.002c2.759,0,4.352-2.866,4.352-6.157c0-2.865-1.38-5.943-4.352-5.943h-37.786c-3.078,0-6.05,1.486-6.05,4.352v68.884
			c0,2.866,2.972,4.352,6.05,4.352h37.786c2.972,0,4.352-3.079,4.352-5.944C434.126,341.788,432.533,338.923,429.774,338.923z"/>
	</g>
</g>
<g>
</g>
<g>
</g>
<g>
</g>
<g>
</g>
<g>
</g>
<g>
</g>
<g>
</g>
<g>
</g>
<g>
</g>
<g>
</g>
<g>
</g>
<g>
</g>
<g>
</g>
<g>
</g>
<g>
</g>
</svg>
