<?xml version="1.0" encoding="iso-8859-1"?>
<!-- Generator: Adobe Illustrator 19.0.0, SVG Export Plug-In . SVG Version: 6.00 Build 0)  -->
<svg version="1.1" id="Capa_1" xmlns="http://www.w3.org/2000/svg" xmlns:xlink="http://www.w3.org/1999/xlink" x="0px" y="0px"
	 viewBox="0 0 512 512" style="enable-background:new 0 0 512 512;" xml:space="preserve">
<g>
	<g>
		<path d="M492.264,228.066H350.581v-16.951c0-14.933-12.149-27.082-27.082-27.082c-14.933,0-27.082,12.149-27.082,27.082v16.951
			H154.735c-10.203,0-18.622,7.782-19.634,17.722c-0.067,0.663-0.102,1.335-0.102,2.015v128.923
			c0,10.883,8.854,19.737,19.736,19.737h23.895v53.751H75.645V189.6l172.3-114.615l172.3,114.616v20.596
			c0,4.046,3.28,7.325,7.325,7.325c4.045,0,7.325-3.279,7.325-7.325v-10.851l22.201,14.768c8.401,5.588,19.255,5.588,27.655,0
			c6.974-4.639,11.138-12.411,11.138-20.787c0-8.376-4.164-16.147-11.138-20.785L255.04,19.734c-4.31-2.866-9.879-2.868-14.188,0
			l-134.473,89.453c-3.368,2.24-4.283,6.787-2.042,10.156c2.241,3.367,6.788,4.283,10.156,2.041L247.945,32.61l228.693,152.13
			c2.924,1.945,4.602,5.075,4.602,8.587c0,3.513-1.677,6.644-4.602,8.59c-3.471,2.309-7.956,2.309-11.427,0L255.04,62.108
			c-2.155-1.434-4.625-2.15-7.094-2.15s-4.939,0.716-7.093,2.15L30.678,201.917c-3.47,2.307-7.955,2.309-11.426-0.001
			c-2.925-1.945-4.602-5.075-4.602-8.588s1.677-6.643,4.602-8.589l56.364-37.494c3.368-2.24,4.283-6.787,2.042-10.156
			c-2.241-3.368-6.789-4.283-10.156-2.041l-56.364,37.493C4.164,177.18,0,184.95,0,193.328s4.164,16.148,11.138,20.786
			c4.201,2.795,9.013,4.192,13.828,4.192c4.813-0.001,9.628-1.398,13.827-4.192l22.202-14.769v250.869H32.921
			c-12.187,0-22.101,9.915-22.101,22.101c0,12.187,9.914,22.101,22.101,22.101h430.048c12.187,0,22.101-9.915,22.101-22.101
			c0-12.187-9.915-22.101-22.101-22.101h-28.073v-35.758c0-4.046-3.28-7.325-7.325-7.325c-4.045,0-7.325,3.279-7.325,7.325v35.758
			h-69.664v-53.751h141.682c10.883,0,19.736-8.854,19.736-19.737V247.803C512,236.92,503.146,228.066,492.264,228.066z
			 M311.067,211.115c0-6.855,5.577-12.432,12.432-12.432c6.855,0,12.432,5.577,12.432,12.432v16.951h-24.864V211.115z
			 M296.417,479.766H32.921c-4.108,0-7.451-3.342-7.451-7.451c0-4.109,3.342-7.451,7.451-7.451h263.496V479.766z M296.417,450.214
			H193.28v-53.751h103.137V450.214z M335.931,479.766h-24.864v-83.304h24.864V479.766z M462.969,464.864L462.969,464.864
			c4.108,0,7.451,3.342,7.451,7.451s-3.343,7.451-7.451,7.451H350.581v-14.902H462.969z M492.264,381.813H154.735
			c-2.805,0-5.086-2.281-5.086-5.087V247.803c0-2.804,2.281-5.086,5.086-5.086l337.529-0.001c2.805,0,5.086,2.281,5.086,5.087
			v128.923h0C497.35,379.531,495.069,381.813,492.264,381.813z"/>
	</g>
</g>
<g>
	<g>
		<path d="M247.945,107.233c-25.445,0-46.146,20.701-46.146,46.146c0,25.445,20.701,46.147,46.146,46.147
			s46.146-20.701,46.146-46.147C294.091,127.935,273.39,107.233,247.945,107.233z M240.62,184.006
			c-11.502-2.751-20.568-11.826-23.309-23.333h23.309V184.006z M240.62,146.023h-23.294c2.758-11.478,11.813-20.524,23.294-23.27
			V146.023z M255.27,122.753c11.482,2.746,20.537,11.793,23.294,23.27H255.27V122.753z M255.27,184.006v-23.333h23.308
			C275.838,172.18,266.772,181.254,255.27,184.006z"/>
	</g>
</g>
<g>
	<g>
		<path d="M264.114,273.434c-3.502,0-6.899,1.273-6.899,4.245v42.668l-20.486-39.589c-3.29-6.263-5.307-7.324-10.295-7.324
			c-3.502,0-6.899,1.38-6.899,4.352v68.884c0,2.866,3.396,4.352,6.899,4.352c3.396,0,6.899-1.486,6.899-4.352v-42.668l22.821,42.668
			c1.805,3.29,4.67,4.352,7.96,4.352c3.396,0,6.899-1.486,6.899-4.352v-68.99C271.013,274.708,267.51,273.434,264.114,273.434z"/>
	</g>
</g>
<g>
	<g>
		<path d="M329.703,338.922h-30.038v-21.335h16.133c2.972,0,4.352-2.865,4.352-5.307c0-2.865-1.592-5.52-4.352-5.52h-16.133v-21.228
			h30.038v0.002c2.759,0,4.352-2.866,4.352-6.157c0-2.865-1.38-5.943-4.352-5.943h-37.786c-3.078,0-6.05,1.486-6.05,4.352v68.884
			c0,2.866,2.972,4.352,6.05,4.352h37.786c2.972,0,4.352-3.079,4.352-5.944C334.055,341.787,332.462,338.922,329.703,338.922z"/>
	</g>
</g>
<g>
	<g>
		<path d="M421.828,273.434c-2.122,0-4.033,0.743-4.564,2.759l-16.77,57.527l-9.022-36.936c-0.637-2.654-3.715-3.822-6.687-3.822
			c-3.078,0-6.156,1.167-6.793,3.822l-9.022,36.936l-16.77-57.527c-0.53-2.016-2.442-2.759-4.564-2.759
			c-3.928,0-8.809,2.441-8.809,5.52c0,0.423,0.106,0.955,0.212,1.273l21.016,66.762c0.955,3.185,4.988,4.67,9.022,4.67
			c3.927,0,8.066-1.485,8.809-4.67l6.899-28.658l6.793,28.658c0.743,3.185,4.882,4.67,8.81,4.67c4.033,0,7.96-1.485,9.022-4.67
			l21.015-66.762c0.107-0.319,0.213-0.85,0.213-1.273C430.638,275.875,425.756,273.434,421.828,273.434z"/>
	</g>
</g>
<g>
</g>
<g>
</g>
<g>
</g>
<g>
</g>
<g>
</g>
<g>
</g>
<g>
</g>
<g>
</g>
<g>
</g>
<g>
</g>
<g>
</g>
<g>
</g>
<g>
</g>
<g>
</g>
<g>
</g>
</svg>
